<svg xmlns="http://www.w3.org/2000/svg" viewBox="0 0 128 128" width="128" height="128">
  <!-- Black box -->
  <path fill="black" d="M120.3 18.5H28.5c-2.9 0-5.7 2.3-6.4 5.2L3.7 104.3c-.7 2.9 1.1 5.2 4 5.2h91.8c2.9 0 5.7-2.3 6.4-5.2l18.4-80.5c.7-2.9-1.1-5.3-4-5.3z"/>
  
  <!-- White logo details -->
  <path fill="white" d="M77.6 65.5c-.4.8-1.2 1.6-2.6 2.6L33.6 97.9c-2.3 1.6-5.5 1-7.3-1.4-1.7-2.4-1.3-5.7.9-7.3l37.4-27.1v-.6l-23.5-25c-1.9-2-1.7-5.3.4-7.4 2.2-2 5.5-2 7.4 0l28.2 30c1.7 1.8 1.8 4.4.5 6.4zM63.5 87.8h22.3c2.6 0 4.7 2.1 4.7 4.6 0 2.6-2.1 4.6-4.7 4.6H63.5c-2.6 0-4.7-2.1-4.7-4.6 0-2.6 2.1-4.6 4.7-4.6z"/>
</svg>