<?xml version="1.0" encoding="utf-8"?>
<!-- Generator: Adobe Illustrator 16.0.0, SVG Export Plug-In . SVG Version: 6.00 Build 0)  -->
<!DOCTYPE svg PUBLIC "-//W3C//DTD SVG 1.1//EN" "http://www.w3.org/Graphics/SVG/1.1/DTD/svg11.dtd">
<svg version="1.1" id="Layer_1" xmlns="http://www.w3.org/2000/svg" xmlns:xlink="http://www.w3.org/1999/xlink" x="0px" y="0px"
	 width="60px" height="60px" viewBox="0 0 128 128" enable-background="new 0 0 128 128" xml:space="preserve" fill="#FFF">
<g>
	<g>
		<g>
			<path fill="#ffffff" d="M56.801,128h-4v-13.156H36.508c-7.473,0-13.552-6.005-13.552-13.386V86.793H11.511L26.83,60.654
				c-0.017-0.468-0.027-0.935-0.027-1.406c0-19.416,12.613-36.371,31.387-42.189c3.463-1.071,7.06-1.724,10.692-1.943l0.24,3.993
				c-3.313,0.2-6.594,0.795-9.75,1.771c-17.088,5.297-28.569,20.716-28.569,38.369c0,0.609,0.021,1.21,0.049,1.815l0.027,0.593
				L18.492,82.793h8.464v18.665c0,5.176,4.285,9.386,9.552,9.386h20.293V128z"/>
		</g>
		<g>
			<path fill="#ffffff" d="M103.974,128h-4V88.227l0.595-0.587c7.688-7.59,11.921-17.673,11.921-28.392
				c0-14.956-8.353-28.591-21.798-35.583c-2.679-1.395-5.52-2.493-8.443-3.265l1.021-3.867c3.209,0.848,6.328,2.053,9.269,3.584
				c14.773,7.683,23.951,22.678,23.951,39.132c0,11.518-4.438,22.364-12.516,30.64V128z"/>
		</g>
	</g>
	<g>
		<g>
			<g>
				<polygon fill="#ffffff" points="75.663,126.696 64.241,106.012 64.241,102.247 68.241,102.247 68.241,104.98 75.663,118.421 
					83.081,104.982 83.081,102.249 87.081,102.249 87.081,106.014 				"/>
			</g>
			<g>
				<polygon fill="#ffffff" points="64.251,104.818 64.251,24.058 68.251,24.058 68.251,100.818 83.072,100.816 83.072,26.721 
					87.072,26.721 87.072,104.816 				"/>
			</g>
			<g>
				<rect x="73.662" y="15.164" fill="#ffffff" width="4" height="84.537"/>
			</g>
			<g>
				<path fill="#ffffff" d="M87.093,11.158l-4-0.002l0.004-7.152C83.075,4.001,83.051,4,83.024,4L68.312,4.002h-0.001
					c-0.029,0-0.056,0.002-0.079,0.005v7.15h-4v-7.49c0-0.914,0.371-1.788,1.043-2.459c0.769-0.766,1.873-1.206,3.033-1.206
					c0.002,0,0.005,0,0.007,0L83.024,0c2.274,0,4.063,1.607,4.072,3.659L87.093,11.158z"/>
			</g>
		</g>
	</g>
</g>
</svg>
